<?xml version="1.0" encoding="utf-8"?>
<!-- Generator: Adobe Illustrator 22.1.0, SVG Export Plug-In . SVG Version: 6.00 Build 0)  -->
<svg version="1.1" id="图层_1" xmlns="http://www.w3.org/2000/svg" xmlns:xlink="http://www.w3.org/1999/xlink" x="0px" y="0px"
	 viewBox="0 0 496 145" style="enable-background:new 0 0 496 145;" xml:space="preserve" fill='#ffffff' >
<g>
	<path d="M50,0c0.7,1.6,1.2,2.7,3.7,2.8c2.8,0.1,5.7,1.8,8.4,3.1c1.6,0.8,3.1,1.9,4.6,2.9c-2.6,1.7-3.1,4.7-2.6,7.9
		c0.1,0.8,0.6,1.8,1.2,2.4c3.6,3.3,4.6,7.7,5.7,12.1c0.8,2.9,1.6,5.7,2.5,8.6c0.1,0.2,0.4,0.4,0.4,0.6c-0.7,3.5,1.4,5.7,4,7.9
		c-2.2,1-1.8,1.7-0.9,3.4c1.2,2.2,4.1,3.8,3.5,7c0,0.2,0.2,0.5,0.4,0.6c1.5,1.4,3,2.7,4.6,4.2c-1.2,0.7-2.7,1.1-3.3,2
		c-0.3,0.6,0.8,2,1.2,2.9c1-0.8,1.9-1.4,2.8-2.1c-0.5,3.7,0,6.7,1.7,9.7c1.1,1.9,1.8,4.2,2.3,6.4c0.2,1-0.7,2.2-1,3.3
		c2.4,0.7,4.6,2.2,5.4,4.9c1.2,4.5,2.2,9,3.3,13.5c0.1,0.4,0,1.2-0.2,1.4c-2.3,1.4-4.5,2.8-7,3.9c-0.6,0.3-2.1-0.5-2.6-1.2
		c-0.4-0.6-0.1-1.8-0.1-2.9c-3.6,0.3-2.9-3.5-3.8-5.5c-2.8-6.3-5.1-12.8-7.5-19.3c-0.7-1.9-1.2-3.8-1.7-5.8
		c-0.6-2.1-3.6-3.6-5.8-2.9c-1.7,0.5-3.4,1.6-5-0.1c-0.2-0.2-0.9-0.1-1.2,0.1c-2.8,1.6-5.7,0.8-8.7,0.5c-1.8-0.2-3.6,0.2-5.4,0.4
		c-2.4,0.3-4.9,0.7-7.3,0.9c-2,0.2-4,0.1-6,0.1c-2.3,0-3.8,1.1-4.3,3.5c-1.5-1.3-3-2.5-4.3-3.6c-0.7,0.8-1.5,1.9-2.5,2.6
		c-1.3,0.9-1.6,1.8-1.4,3.4c0.1,1.4-1,3-1.7,4.8c-1.5-2.1-2.8-3.9-4.1-5.7c-0.3,0-0.5,0-0.8-0.1c-0.7,1.9-1.3,3.9-2,5.8
		c0.1,0.1,0.2,0.1,0.3,0.2c0.7-0.9,1.5-1.9,2.4-3c1.7,1.8-0.4,3-0.5,4.4c-0.2,1.6-0.3,3.2-0.1,4.7c0.2,1.6,0.7,3.1,1.1,4.7
		c-2.3,0.6-4.2,1.1-6.1,1.5c-0.1-0.3-0.3-0.5-0.4-0.8c-0.4,0.8-0.8,1.6-1.3,2.5c1.4,0.5,2.5,0.9,3.7,1.3c-1.1,1.7-2,3.1-3,4.5
		c-0.8,1.2-1.9,1.2-3.4,1.2c-3.8-0.1-6.5-0.6-6-5.3c0.1-0.6-0.8-1.3-1.2-2c0-1.2,0-2.3,0-3.5c0.2-0.3,0.7-0.6,0.7-0.8
		c0.1-2.5,1.4-3.3,3.6-2.3C4.6,89,4.8,86.8,5.2,84c-1.5-2.2-1.5-2.2,1.7-3.9c-2-2.4-1.5-4.8-0.1-7.3c1.2,0.8,2.3,1.5,3.4,2.3
		c0.4-2.9,2.7-5.1,1.9-8.1c0-0.1,0.2-0.4,0.4-0.5c1.2-1.4,2-2.9,0.7-4.8c-0.3-0.5-0.1-1.5-0.1-2.4c1.3,0.9,2.3,1.6,3.4,2.3
		c0.7-0.4,1.3-0.8,1.7-1.1c0.1-2.2,0.2-4.3,0.3-6.2c4-1,2-6,5-7.8c0.6,0.5,1.2,0.9,1.8,1.4c2-2.5-0.9-6.2,1.9-8.3
		c2.4,1.8,0.2,4.9,2.5,6.7c0-2.5,0.2-4.6,3.3-5.7c-1.1-0.5-1.6-0.7-2-0.9c-3.2-1.6-3.9-5.1-1.6-7c1.4-1.1,2.4-2.8,3.6-4.2
		c0.6-0.7,1.3-1.4,1.8-2.1c0.6-0.9,1.4-1.8,1.7-2.9c0.3-1,0.1-2.1,0.1-3.3c0.9-0.1,1.6-0.2,2.2-0.2c0.3-1,0.3-2,0.7-2.7
		c1.1-1.8,2.8-3.3,3.5-5.2c0.6-1.4-0.1-3.3,0.1-5c0.1-1.2,0.6-2.5,1.4-3.3c1.5-1.4,3.3-2.5,5-3.8C49.7,0,49.8,0,50,0z M69.9,61
		c-0.7-1.7-1.2-3.6-2.2-5.2c-1.8-3-4.2-5.6-5.7-8.7c-2.5-5.3-4.4-10.9-6.6-16.4c-0.6-1.6-1.3-3.1-2-4.7c-0.3,0-0.6,0.1-0.9,0.1
		c-0.1,1.3-0.4,2.6-0.2,3.9c0.4,2.6,1,5.2,1.5,7.9c-1.5-0.2-2.4-0.3-3.5-0.4c0.5,1.1,0.9,1.9,1.2,2.6c-2.7-0.6-5-1.1-7.4-1.6
		c-0.1,0.2-0.2,0.4-0.3,0.5c1.1,0.8,2.2,1.6,3.5,2.5c-0.3,1.7,1.6,3.6,0.1,5.8c-1.2,1.7-2.1,3.5-3.2,5.3c-0.2-0.1-0.3-0.2-0.5-0.3
		c-0.1-1.3-0.3-2.5-0.5-4.2c-3.2,2.4-1.2,5.5-2.1,8.5c1.1-0.9,1.7-1.4,2.8-2.4c-0.2,1.5-0.2,2.4-0.4,3.1c-0.7,2.1-0.3,2.9,2.1,3
		c1.2,0.1,2.5-0.1,3.7,0.1c0.7,0.1,1.4,0.8,2.1,1.2c0.1,0.1,0.3,0,0.6,0c0-0.4,0.1-0.8,0.1-0.8C58,61,63.6,61,69.9,61z M36,59.8
		c-0.2-2.9,3-5.6,0.6-8.8c-1.1,1.2-2,2.6-3.2,3.2c-2,1-1.6,2.6-1.3,4C32.6,59.8,34,60.3,36,59.8z"/>
	<path d="M221.5,145c0.3-0.6,0.6-1.5,1-1.6c4.6-1.1,5.9-6.5,10.4-7.7c1.2-0.3,2.4-1.7,2.9-2.8c1.4-3.1,2.8-6.3,3.5-9.6
		c0.8-3.8,0.9-7.8,1.2-11.7c0.2-3.5,0.3-7,0.5-10.4c0-0.6,0.6-1.2,0.7-1.4c-0.3-1.3-0.6-2.2-0.6-3.2c-0.1-2.5,0-5,0-7.5
		c0-1.8-0.6-3.2-3-2.2c0.4-2.3,0.6-4.3,1-6.2c0.5-2.5-1.2-3.4-2.9-4.4c-0.7,1.3-1.5,2.6-2.5,4.4c-0.5-1-0.7-1.6-0.9-2.1
		c-0.2,0-0.4,0-0.6,0.1c0,1.7,0,3.4,0,5.3c-1.6,0.1-2.8,0.2-4.7,0.3c1,1.1,1.6,1.9,2.4,2.8c-0.1,0.4-0.2,1.2-0.5,1.8
		c-0.5,1-1,2-2.3,0.6c-0.5-0.5-1.8-0.2-2.7-0.3c-1.1-0.1-2.7,0.3-3.1-0.2c-1.5-2-2.9-1.4-4.5-0.4c-0.4-0.7-0.8-1.5-1.4-2.4
		c-2.1,1.3-4.2,2.6-6.3,3.9c0,0-0.2-0.3-0.5-0.5c-1.2-0.8-2.8-1.4-3.5-2.5c-0.6-0.9-0.2-2.5-0.3-4.3c-0.6,0.9-1,1.3-1.2,1.8
		c-1,2.6-3.4,3.3-5.6,1.4c-1.3-1.1-2.5-1.9-4.4-1.8c-0.9,0-1.9-0.8-2.7-1.4c-0.9-0.7-1.6-1.8-2.6-2.2c-1.8-0.8-2.3-1.8-1.3-3.7
		c-4.9-0.1-5.1-4-5.8-7.1c-1.5-6.8-1.8-13.8-1.4-20.9c0.1-1.8,0.4-3.6,0.5-5.3c0.1-2,0.3-3.8,2.4-5c0.9-0.5,1.1-2,1.6-2.9
		c1.2,0.6,2.1,1.4,3,1.5c3.7,0.3,3.7,0.2,5.9,2.8c2.3-1.3,3.5-1.1,4.2,1.4c1.1,3.9,2,7.9,2.7,11.9c0.8,5,1.4,10.1,1.9,15.1
		c0.2,2.5,1.8,3.8,3.8,4.7c2.7,1.2,5.3,3,8.6,1.2c0.6-0.3,2,0.4,2.7,1.1c1.3,1.2,2.5,2,3.9,0.3c1.4-1.7,0.2-2.6-1.1-3.5
		c-0.2-0.2-0.4-0.5-0.6-1c3.8,0.1,7.3-0.6,8.8-4.2c1.1-2.7,2.5-4.3,5.5-4.5c0.7-0.1,1.2-1.9,1.9-2.9c0.4-0.6,0.9-1.1,1.4-1.7
		c0.7,1.6,1.2,2.6,1.7,3.7c1.6-0.8,3.4-1.5,4.7-2.6c0.7-0.7,2.1-2.3-0.3-3.7c-0.1,0.2-0.1,0.5-0.3,0.8c-0.3,0.4-0.7,0.8-1.1,1.2
		c-0.5-0.5-1.3-1-1.3-1.5c0.2-4.2,0.5-8.3,1-12.5c0.2-1.8,2.2-2.2,3-1.4c2.9,2.8,7.3,3.3,9.5,7.4c1.2,2.3,1.2,4.3,1.3,6.6
		c0.1,2.2-0.6,4.7,2.2,6c0.4,0.2,0.3,1.6,0.2,2.4c-0.5,3.2-1,6.4-1.5,9c-2.1,1.2-3.8,2.2-5.5,3.2c0.1,0.2,0.2,0.5,0.3,0.7
		c0.3,0,0.6,0,0.9,0c3.5,0.1,3.5,0.1,3.9,3.6c0.1,1.2,0.6,2.4,1,3.7c-2,0.3-3.9,0.6-5.8,0.8c-0.1,0.2-0.2,0.4-0.2,0.5
		c1.3,0.6,2.6,1.2,4,1.9c2.1,1,2.8,4.3,1.3,5.9c-1,1.1-3.1,0.7-3.7-0.7c-0.3-0.7-0.6-1.5-0.9-2.2c-0.1-0.1-0.2-0.2,0,0
		c-1.1,1.4-2.3,2.8-3.3,4c1.1,0.1,2.5,0.2,3.9,0.5c3.2,0.7,4.7,3.6,3.9,6.8c-0.7,2.9-1.2,5.8-1.6,8.7c-0.2,1.2-0.1,2.5,1.7,1.7
		c-0.4,1.6-0.7,3.1-1.3,4.5c-0.6,1.4-1.5,2.6-2.2,3.9c-0.3,0.6-0.7,1.3-0.7,1.9c-0.1,1.6,0,3.2,0,5.1c-0.9-0.4-1.6-0.7-2.4-1
		c-0.4,1.1-0.8,2.2-1.3,3.2c-1.1,2-1,3.7,0.5,5.5c0.8,0.9,0.9,2.3,1.4,3.4c-0.3,0.2-0.6,0.4-0.8,0.6c-1.1-1-2.2-2-3.7-3.4
		c-0.3,0.8-1,1.6-1.1,2.6c-0.1,1.5-0.6,3.4,1.5,4c1.6,0.5,1.7,1.3,0.9,2.5C238.2,145,229.8,145,221.5,145z M233.8,74.5
		c0.1,0.3,0.2,0.5,0.4,0.8c0.8-0.8,2-1.4,2.4-2.4c0.4-0.9,0-2.2-0.3-3.2c-0.2-0.7-1-1.3-2-2.4C234.1,69.8,233.9,72.2,233.8,74.5z"/>
	<path d="M496,112.5c-2.8,1.6-4.9-1.2-7.7-1.1c-0.1-0.5-0.3-1-0.4-1.7c-4.3,0.8-4.3,0.8-5.1-1.2c-0.4,0.4-0.7,0.7-1.1,1
		c-0.3,0.3-0.6,0.6-1.2,1.1c-0.2-4.3-3.2-6.3-6.1-8.3c-0.3-0.2-0.5-0.7-0.5-1c-0.1-0.8,0.3-1.9-1.3-1.5c-0.1,0-0.4-0.6-0.5-1
		c-0.6-3.7-1.3-7.3-1.8-11c-0.1-0.5,0.5-1,0.7-1.5c0.3,0.4,0.7,0.7,1.1,1.2c3.1-2.4,6.2-4.9,9.9-7.8c0.1,1.8,0.2,2.7,0.3,4.2
		c1.3-1,2.3-1.7,3.3-2.4c2.6,1.5,2.6,4.2,2.7,6.8c1-2.2,2.5-4.3-0.3-6.2c-0.3-0.2-0.1-1.4,0.1-2c0.1-0.3,0.9-0.6,1.2-0.4
		c0.5,0.3,0.8,0.9,1.2,1.4c0.2,0.2,0.4,0.6,0.6,0.7c2.5,1.1,2.8,3.4,3.1,5.7c0.3,2.2,0.6,4.4,0.9,6.6c0.1,0.6,0.1,1.2,0.1,1.7
		c0.1,1.7,0.3,3.4,0.4,5.2c0.1,1.2,0,2.3,0,3.6c-0.8,0-1.5,0-1.6,0c0.4,2.1,0.8,4.2,1.3,6.3c0.1,0.3,0.6,0.5,0.9,0.7
		C496,111.8,496,112.2,496,112.5z"/>
	<path d="M301.8,75.5c0.1,0.1,0.6,0.5,1.1,1c0.4,0.5,1.1,1,1.1,1.6c0,0.5-0.6,1-1,1.5c-1.1,1.4-2.5,2.6-3.3,4.2
		c-1,1.9-2.2,3-4.5,2.7c-2.4-0.4-3.1,1-3.1,3c0,1.1,0.1,2.2,0,3.2c-0.2,1.5-0.7,2.5-2.7,2.9c-1.9,0.4-3.7,1.9-5.2,3.3
		c-1.1,1-1.8,2.4-2.6,3.5c-1.4-1.8-2.5-3.4-3.8-4.8c-0.1-0.2-1.6,1-2.5,1.5c0.1,0.2,0.3,0.5,0.4,0.7c1.1-0.1,2.1-0.3,3.6-0.5
		c-1.3,2.8-2.4,5.3-3.5,7.8c-3.2-2.3-7.4-17.9-6.9-25.7c0.6,0.2,1.1,0.6,1.6,0.4c0.6-0.2,1.2-0.7,1.6-1.2c0.1-0.2-0.4-1-0.9-1.3
		c-0.6-0.4-1.3-0.7-1.9-1c-1.4-0.6-2.1-1.6-2-3.3c0.2-4.8,0.5-9.7,0.5-14.6c0-2.4-0.5-4.7-0.5-7.1c0-1.5,0.5-3,0.8-4.7
		c-0.6-2.8-1.4-5.9-1.8-9c-0.2-1.9,0.4-3.8,0.6-5.9c3.6-0.9,4.4-2.1,3.6-6.1c-0.7,0-1.5-0.1-2.8-0.1c0.9,1.5,1.5,2.5,2.2,3.8
		c-1.1,0.1-1.8,0.2-2.6,0.3c0-1.8,0-3.5,0-5.3c0.1,0.1,0.3,0.2,0.4,0.3c1.2-1.7,2.4-3.3,4-5.5c2.3,1.4,4.9,3,7.6,4.6
		c-0.1,0.3-0.1,0.6-0.2,0.8c-1.8,0.8-3.5,1.6-5.5,2.5c1.3,0.3,2.5,0.6,3.7,0.8c3,0.6,3.7,2.2,1.9,4.6c-2.5,3.5-2.5,3.8,1.1,6
		c2.6,1.6,2,3.8,1.7,6c-0.5,3.4-0.5,3.4,2.4,4.3c1,3.7,2.1,7.2,2.9,10.7c0.2,0.7-0.2,2-0.7,2.3c-1.4,0.9-1.2,1.8-0.8,3.1
		c0.7,2.1,1.3,4,4,4.4c0.6,0.1,1.2,0.7,2.3,1.4c0-2.1-0.3-4,0.1-5.8c0.3-1.3,1.2-3,2.2-3.4c4.2-1.5,5.7-5,7.5-8.5
		c1-2,2.7-3.6,4.2-5.6c0.7,1.4,1.2,2.3,1.3,2.5c2.3,0,4.3,0,6.5,0c-0.5-1.7-1.1-3.2,1.1-3.9c0.3-0.1,0.4-1.4,0.3-2.2
		c-0.2-1.6-0.8-3.1-1-4.7c-0.2-2.1,0.7-3.8,3.2-4.8c0.1,1.6,0.2,2.9,0.3,4.3c0.2,0,0.4,0.1,0.6,0.1c0.5-2.7,0.9-5.5,1.5-8.5
		c1.1,0.4,1.9,0.7,2.7,1.1c-0.3,1.1-0.6,2-1,3.8c2.6-3.5,4.7-2,6.9-0.7c1.9,1.1,4,2,6.6,3.4c0.2,1.8,1.6,3.8,4,5.3
		c2.3,1.4,2.6,3.6,1.8,6.1c-0.2,0.6-0.4,1.7-0.1,1.9c2.4,1.9,1.2,4.2,0.6,6.2c-0.5,1.8,0.2,2.7,1.4,3.5c1.1,0.7,2.2,1.2,1.6,2.9
		c-0.1,0.2,0.1,0.6,0.2,0.9c0.7,2,1.5,4.1,2.2,6.1c1.3,4.2,2.3,8.5,3.9,12.5c0.8,1.9,2.5,3.7,4.2,5c3.5,2.8,7.4,5.1,9.9,9
		c1.3,2,1.2,2.9-0.9,3.8c-0.9,0.4-1.8,0.8-2.5,1.5c-0.6,0.6-1,1.5-1.7,2.8c-0.2-1.1-0.3-1.8-0.5-2.4c-0.6-2.9-1.7-3.4-4.5-2.9
		c-1.2,0.2-2.6,0.1-3.8-0.3c-0.6-0.2-1-1.4-1.4-2.1c-0.4-0.7-0.8-1.5-1.3-2.2c-0.7,0.4-1.5,0.8-2.2,1.3c-0.9,0.6-1.8,1.2-2.7,1.8
		c-0.2-0.2-0.4-0.5-0.6-0.7c0.6-0.7,1.2-1.4,1.7-2.2c1.1-1.7,0.6-2.6-1.4-2.7c-1.8,0-3.3-0.2-4.6-1.8c-0.4-0.5-2.2-0.4-2.9,0.1
		c-1.7,1.1-2.5,1-3.4-0.9c-1-2.2-2.9-4-1.9-6.8c0.1-0.2-0.2-0.7-0.4-0.8c-3.3-2.3-2.5-6-3-9.2c-0.9-5.1-1.5-10.3-2.4-15.4
		c-0.1-0.8-1.4-2.1-1.8-2c-0.9,0.2-1.6,1.2-2.4,1.9c-0.2,0.2-0.2,0.6-0.3,0.9c-0.5-0.2-1-0.3-1.5-0.5c-0.1,0.3-0.3,0.6-0.2,0.8
		c1,2.4-0.1,2.8-2.3,2.8c-2.4-0.1-5-0.6-6.7,2.1c-0.2,0.3-1,0.2-1.6,0.3c0,0.9,0.1,2,0.2,3c-0.2-0.1-0.3-0.2-0.5-0.3
		c-1,1.5-2,3-3.1,4.4C303.5,74.2,302.8,74.7,301.8,75.5z M277.6,73.6c1.1,2.5,2,4.7,3.3,7.5c1.3-2.9,2.3-5.1,3.4-7.5
		C281.9,73.6,280,73.6,277.6,73.6z M282.4,59.5c-0.2,0.1-0.3,0.1-0.5,0.2c-0.9,1.7-1.9,3.4-2.6,5.2c-0.8,2-0.9,4.3,0.8,5.7
		c0.7,0.6,2.6-0.1,4-0.3c0-0.2-0.1-0.5-0.1-0.7c-0.7-0.1-1.5-0.1-2.2-0.2c-0.3-2.4-1.9-4.8,0.7-7C283,62,282.5,60.5,282.4,59.5z
		 M351.8,99.6c1.6-0.4,3.2-0.8,4.8-1.2c-0.9-0.9-1.6-1.2-2.3-1.4C352.1,96.3,351.5,97,351.8,99.6z M342.9,74.4c0-2-2.9-5.4-4.2-5.1
		c0,0.7,0,1.4,0,1.4C340.3,72.1,341.6,73.2,342.9,74.4z"/>
	<path d="M378.7,48.3c0.2,1.5,0.3,2.2,0.3,2.3c2.1,0.3,3.9,0.5,6.2,0.8c-1.5-1.3-2.8-2.4-4.1-3.6c1.6-0.8,2.5-1.2,3.4-1.6
		c0.7,1.1,1.4,2.4,2.4,4.1c1.7-4.6,0.1-7-3.3-8.4c0.9-2.7,2.3-4.3,5.3-3.8c0.6,0.1,1.6-0.7,2.1-1.4c1-1.2,1.9-2.6,2.8-4
		c0.2,0.1,0.5,0.3,0.7,0.4c-0.2,2.8-0.4,5.5-0.5,7.7c-1.2,0.7-2,1.2-3.2,1.9c1.8,0.9,3.1,1.5,4.7,2.3c0.1-1.2,0.1-2.6,0.2-4.1
		c1.1,0,2.1,0,3.4,0c-0.4-0.8-0.7-1.4-1.1-2.3c0.7,0.1,1.2,0.3,2.4,0.5c-0.3-2.2-0.5-4.3-0.8-6.6c1.2,0.4,2.3,0.7,3.5,1.1
		c2.9-3.6,6.7-5,11.5-3.2c-0.3,0.6-0.7,1.2-1,1.8c0.1,0.1,0.2,0.2,0.3,0.3c0.8-0.8,1.7-1.5,2.5-2.3c2.1-2.2,2.4-2.2,4.4-0.2
		c0.7,0.7,1.4,1.3,2.3,2.2c0.4-0.9,0.6-1.5,0.8-2.1c-0.8-0.6-1.4-1-2.3-1.7c3.9-1.8,4.7,1.8,7,3.1c0.5-3.6,2.7-2.6,4.7-1.8
		c0.3,1.2,0.6,2.4,0.9,3.5c0.2,0,0.4,0,0.6,0.1c0.1-2.1,0.3-4.1,0.4-6.2c0.2,0,0.3-0.1,0.5-0.1c0.7,2.6,1.3,5.2,2,8
		c1.3-1,2.4-1.8,3.8-2.9c-1.4-0.5-2.2-0.8-3-1.2c0-0.3,0.1-0.7,0.1-1c1.5,0.1,3.3-0.1,4.4,0.6c0.7,0.4,0.1,2.5,0.5,3.7
		c0.2,1,0.7,2.4,1.5,2.6c2.4,0.9,4,2.1,3.5,5c-0.1,0.9,0,1.8,0,2.7c0,1.6,0,3,2.1,3.4c0.3,0.1,0.5,0.8,0.8,1.3
		c-0.5,0.1-1,0.3-1.5,0.1c-1.4-0.5-2.6-1.2-4.2-2c-0.3,0.6-0.7,1.3-1.2,2.2c-1.4-0.7-2.8-1.4-3.6-1.7c-0.2-1.7,0-3-0.5-3.9
		c-0.7-1.3-2-1.9-3.3-0.4c-1.2,1.3-2.3,2.3-3.7,0.2c-0.2-0.3-0.9-0.2-1.4-0.3c-1-0.1-1.9-0.3-2.9-0.4c-0.1-0.2-0.2-0.5-0.3-0.7
		c-0.4,0.6-0.9,1.2-1.3,1.9c-1.6,3-4.5,2.9-7.2,3.2c-3,0.4-6,0.7-9.1,1.1c-0.3,0-0.6,0.5-0.9,0.7c-0.5,0.3-1.4,0.8-1.5,0.6
		c-1.9-2-4.5-1.3-7.1-1.9c0.3,0.9,0.5,2.1,1.1,3c1.6,2.8,1.3,3.7-1.8,4.5c-0.5,0.1-1.1,0.2-0.9,0.7c-0.3,1.3-0.7,2.6-1,3.9
		c-0.4,1.6-0.9,3.3-1.2,5c-0.5,2.6-0.8,5.3-1.2,8.4c-1.9-1.2-3.2-2.1-4.5-2.9c-0.1,1.6-0.4,3.1-0.2,4.6c0.2,1.3,0.4,3,2.6,2.1
		c0.8-0.3,1.7-0.2,2.7-0.3c-0.7,3.7,0.4,6.5,3.3,8.6c0.2,0.1,0.4,0.3,0.6,0.5c3.4,4.8,8.7,5,13.8,5.5c3.5,0.3,7,0.1,10.7,0.1
		c0.2,0.6,0.4,1.3,0.6,1.9c0.3-0.1,0.6-0.2,0.6-0.2c0.5-3.9,3.8-3.9,6.6-4.7c2.4-0.7,4.9-1.1,7.3-2c4.1-1.5,9.3,0.5,11,4.5
		c0.8,1.9-1.2,4.8-3.9,4.9c0.6-0.8,1.4-1.3,1.6-2.1c0.2-0.7-0.2-1.5-0.6-2.3c-0.6,2.4-2.2,2.5-4.2,2.5c-3.5,0.1-4.1,1.2-2.9,3.7
		c-1.6,2.3-3,4.5-4.5,6.7c-0.5-1.4-1-2.5-1.5-3.7c-2.3,4.5-6.3,5.7-14.3,4.5c-0.4-2.2-0.4-2.2-4.1-4.6c-1.1,0.8-2.1,1.6-3.3,2.4
		c-0.3-0.6-0.5-1.1-0.8-1.8c-0.6,1-1.1,1.8-1.6,2.5c-0.3,0.4-0.8,0.8-1.1,1.2c-0.3-0.7-0.8-1.4-0.8-2c0.1-1.3,0.8-2.6,0.9-4
		c0.1-1.6-0.6-2.4-2.2-1c-0.2,0.2-0.5,0.5-0.8,0.5c-1.3,0.2-2.6,0.2-3.8,0.6c-1.1,0.4-2,1.3-3.2,2.1c-0.9-1.7-2.1-1.8-3.7-1.3
		c-1.3,0.4-2.9,0.1-4.9,0.1c-0.3,0.3-1.2,1.1-2,1.9c-0.2,0-0.4-0.1-0.7-0.1c0.3-1.8,0.6-3.7,0.9-5.5c-0.2-0.1-0.4-0.1-0.6-0.2
		c-0.5,0.7-0.9,1.3-1.7,2.4c-0.1-1-0.1-1.6-0.3-2.1c-0.2-0.6-0.7-1.6-1-1.6c-2.6,0.1-1.9-1.7-1.9-3.1c0-0.6-0.2-1.3-0.3-1.9
		c-0.6,0.4-1.3,0.8-1.9,1.2c-0.6,0.4-1.1,1-1.7,1.4c-0.3-0.2-0.6-0.3-0.9-0.5c0.2-1.8,0.5-3.7,0.7-5.5c-0.6-0.2-1.3-0.5-2-0.6
		c-0.6-0.1-1.2-0.1-1.9-0.1c0.4,0.6,0.6,1.3,1.1,1.8c0.3,0.3,0.9,0.2,1.4,0.2c0,0.2,0,0.4,0,0.6c-1.3,0.1-2.5,0.2-3.5,0.3
		c-0.9-1.5-1.6-2.8-2.3-4c-0.6-1.1-2.7-1.8-1.3-2.9c-0.2-1.8-0.4-3-0.6-4.2c-0.1-0.5-0.2-1-0.5-1.3c-1.4-1.9-1.2-2.4,1-3.1
		c1.4-0.4,3.4,0.2,3.8-2.2c-1.9,0.5-3.7,0.9-5.6,1.4c-1-3.3,1.4-5.1,2.9-7c1.2-1.4,1.2-2.6,0.4-4c-0.8-1.3-0.7-2.4,0.2-3.8
		c0.8-1.3,1-3.1,1.7-4.5C376.3,51.5,377.4,50.2,378.7,48.3z M393.4,67.8c1.3-2.2,1.1-4.4-0.3-6.5c-1.2-1.9-2.6-0.9-4.3-0.4
		C389.1,64,391.4,65.8,393.4,67.8z M424.4,38.6c2.3-0.7,3.9-1.2,5.6-1.8c-1.1-1.4-1.9-2.5-3.1-4C426.1,34.7,425.3,36.5,424.4,38.6z
		 M426.3,99.7c-3.4,2.6-3.4,2.6-3,4.8c1.3-0.4,2.6-0.8,4.1-1.3C427,102.1,426.7,101,426.3,99.7z M415.2,35.4
		c0.8,0.4,1.5,0.7,2.2,1.1c0.3-3.3-0.9-4-4.5-2.6c0.2,1,0.5,2,0.8,3.4C414.4,36.4,414.7,35.9,415.2,35.4z M411.7,36.7
		c-0.3,0-0.5-0.1-0.8-0.1c-0.3,2.3-0.6,4.6-0.9,6.9C411.7,41.4,412.7,39.2,411.7,36.7z M415.9,37.7c-1.1,1.7-3.3,2.4-2.6,4.6
		c1.3-1.1,2.5-2,4-3.4C416.9,38.6,416.5,38.2,415.9,37.7z"/>
	<path d="M133.7,33.3c0.4-1,0.7-1.8,1.1-3c0.7,0.6,1.2,1.1,1.6,1.4c1.3-1.1,2.5-2.1,3.8-3.2c0.2,0.2,0.3,0.4,0.5,0.6
		c-0.1,0.5-0.1,1-0.2,1.6c0.2,0.1,0.3,0.2,0.5,0.3c1-1.2,2-2.4,3.4-4.1c0.8,0.1,2.3,0.3,4.2,0.5c0.1-0.1,0.4-0.7,1.2-1.9
		c1.1,1.6,1.9,2.9,2.9,4.3c2.7-2,4.9,0.2,6.3,1.6c6.1,6,9.4,13.2,7.6,22.1c-0.1,0.4-0.1,0.8-0.1,1.2c-0.2,3.1-1,3.8-4.2,3.7
		c-0.6-2.7-1.1-5.3-1.8-8c-0.2-0.6-1.1-1-1.8-1.4c-1.4-0.8-2.8-1.7-4.3-2.1c-1.8-0.5-3.8-0.7-5.7-0.8c-1.7-0.1-3.4,0-5.1-0.1
		c-0.7,0-1.6-0.3-2,0c-2,1.7-4,0.7-6,0.5c-3.3-0.4-9.1,3.5-8.6,8.2c0.5,0.1,1.3,0,1.5,0.3c2.8,4.3,7.4,2.2,11.1,3.5
		c3.3,1.2,6.4,3,9.7,4.4c2.2,1,4.6,1.5,6.9,2.5c2.6,1.2,5.2,2.4,7.6,3.9c1.4,0.9,1.8,2.2,0.5,3.9c-0.8,1-0.6,2.8-0.9,4.4
		c0.8-0.1,0.9-0.1,1.1-0.1c1-0.5,2-0.9,3-1.4c0.1,1.5,0.7,3.2,0.3,4.5c-0.3,1-0.8,1.6,0.1,2.5c0.2,0.2,0,0.9-0.1,1.4
		c-1.2,3.1-2.3,6.1-3.6,9.1c-0.4,1-0.5,2.9-2.6,2c-0.1,0-0.6,0.7-0.8,1c-1,1.5-1.9,3.1-3.1,4.4c-1.9,2.1-2.1,2.1-3.2-0.5
		c-0.2-0.4-0.4-0.7-0.7-1.2c-1.3,1.1-2.9,1.8-1.3,3.9c0.2,0.3-0.2,1.1-0.3,2c-1.4-1-2.4-1.7-3.7-2.7c-0.2,1.2-0.3,1.9-0.4,2.8
		c-1.8,0-3.9,0.8-4.1-2.5c-2.1,6.8-7.5,4.5-12.1,5.1c-0.5-1.9-0.9-3.7-1.4-5.5c-2,0.7-1.9,0.8-3,3.1c-0.6,1.3-1.7,2.4-2.5,3.6
		c-0.5-0.2-1-0.5-1.5-0.7c-0.3-2.1-0.5-4.1-0.8-6.3c-1.2,1.3-2.5,2.7-3.5,3.8c-1.4,0.2-2.5,0.3-3.5,0.5c-1.6,0.3-2.5-0.5-2.2-2.7
		c-2.3,1.4-4.6,3.1-6.5-0.3c0.7-0.3,1.4-0.6,2-0.9c2.1-1.1,2.9-2.8,2-4.9c-0.8-2-1.3-3.5,0.6-5.2c0.8-0.8,0.9-2.4,1.1-3.7
		c0.3-1.7,1.1-1.9,2.6-1.2c0.6,0.3,1.7,0.2,2.1-0.2c1.8-1.9,3.6-2.7,6-1.3c0.5,0.3,1.3,0,2.1,0c0.1,1.4,0.2,2.6,0.2,3.8
		c3.5-0.2,3.5-0.2,5.3,2.1c0.1-1.4,0.2-2.6,0.3-4c2.3,0.6,4.5,1.2,6.7,1.7c0.6,0.1,1.5,0.2,1.7-0.1c2.5-2.8,6-2.3,9.1-2.9
		c2.3-0.5,4.7-0.7,7.1-1.1c2.1-0.3,2.6-1.9,2.4-3.7c-0.7-4.8-7.5-9.8-12.4-9.3c-2.5,0.3-3.8,1.7-3.6,3.8c-1.8-1.3-2.1-1.9-1.2-3.5
		c1.1-2.1,0.4-3.7-1.3-5.7c0,2,0,3.6,0,5.1c-1.9,0.6-2.8,0.2-3.2-1.6c-0.5-2.2-1.2-4.3-1.9-6.5c-0.3-0.1-0.6-0.1-0.9-0.2
		c-0.6,0.9-1.1,1.8-1.3,2.1c-1.9,1.2-3.4,2.2-4.9,3.2c-0.9,0.6-1.6,1.5-2.5,2c-0.7,0.4-1.6,0.3-2.4,0.4c-0.1-0.7-0.2-1.4-0.3-2.3
		c-0.4,0.1-1,0.3-1.5,0.4c-0.6-0.8-1-1.8-1.8-2.3c-3.6-2.2-3.5-5.8-3.8-9.2c-0.3-3.5-0.8-7.1,1.1-10.3c0.9-1.5,1.9-3,3-4.4
		c0.5-0.7,1.7-1.4,1.7-2.1c-0.3-4.2,3.6-5.3,5.7-7.7C127.9,32,132.6,32,133.7,33.3z M128.1,39.2c-1.7,2.1-0.8,3.7,0.1,5.2
		c0.3,0.5,1.1,1.3,1.3,1.2c0.8-0.3,1.6-0.9,2-1.6c0.3-0.5,0.1-1.3,0.1-2.1C129.4,42.4,128.1,41.8,128.1,39.2z M135.8,44.9
		c0-1.8,0-3.5,0-5.3C133.3,41.1,133.3,43.2,135.8,44.9z"/>
	<path d="M24.6,85.4c-2.3,1-4,1.8-5.6,2.6c0.3,1,0.6,1.6,0.8,2.3c-0.2,0.1-0.4,0.2-0.6,0.3c-0.3-0.9-1-1.8-0.9-2.7
		C18.3,86.4,21.8,84.9,24.6,85.4z"/>
	<path d="M483.5,75c0.8,0.5,1.4,0.9,2,1.2c-0.6,1.2-1.2,2.2-1.9,3.6C482.4,80,482.1,78.9,483.5,75z"/>
</g>
</svg>
